<svg width="96" height="42" viewBox="0 0 96 42" fill="none" xmlns="http://www.w3.org/2000/svg">
<path d="M2 32.6945L6.4985 3.66805L24.9015 3.4406L26.956 17.6948L34.7359 3.31423L61.0648 3.16259C65.0862 3.55433 68.6792 4.16088 71.6392 8.20462C76.1475 9.05128 80.3539 5.36136 81.756 2.20219L93.8981 2L88.1045 29.1436L94.3557 29.1057L91.6196 40.4408L65.5536 40.6304L66.7123 35.3482C65.466 36.7004 63.6646 38.242 62.3793 39.531C60.1593 41.6413 56.9655 41.199 54.3463 39.948L12.9736 39.9101L2 32.6945Z" stroke="#D9D9D9" stroke-width="1.9998" stroke-miterlimit="22.9256"/>
<path fill-rule="evenodd" clip-rule="evenodd" d="M7.15088 34.5521L12.2628 6.08167L23.0806 6.06902L25.9238 26.4141L35.9822 6.09428L61.5322 5.79102L63.3627 5.99321L64.9985 6.28386C72.0287 7.42117 72.7006 17.758 65.1544 20.7908L66.4688 21.3468L67.3939 22.0797L68.056 22.6484C68.2799 23.0022 68.5039 23.3687 68.7278 23.7225C70.4902 28.1074 69.0297 35.3609 58.7669 37.6355L57.4718 37.9261L56.3618 38.1283L19.6143 38.4063L45.9529 30.8875C49.1369 30.7737 52.3307 30.5716 55.5147 30.5968C56.021 30.5968 56.1671 30.6221 56.5663 30.4957C58.9032 29.0678 59.4289 26.1487 56.2255 24.8092L46.7708 24.8724L46.0016 29.9524L37.1507 32.4797L48.0366 18.6299L52.7202 18.5162L54.9597 18.4404L56.7318 18.4024C57.6763 18.7563 61.464 14.1944 57.4816 13.1077L48.8448 13.2087L48.0366 18.6299L37.1507 32.4797L40.471 9.08917L25.4272 35.9548L19.5266 37.964L17.2092 18.2003L13.3436 38.9623L7.15088 34.5521Z" fill="#C31520"/>
<path fill-rule="evenodd" clip-rule="evenodd" d="M25.437 35.8916L28.9813 34.8427L37.2773 17.9728L34.6969 33.2379L37.1604 32.4923L40.4807 9.10181L25.437 35.8916Z" fill="black"/>
<path d="M25.437 35.8916L28.9813 34.8427L37.2773 17.9728L34.6969 33.2379L37.1604 32.4923L40.4807 9.10181L25.437 35.8916Z" stroke="black" stroke-width="0.216" stroke-miterlimit="22.9256"/>
<path fill-rule="evenodd" clip-rule="evenodd" d="M6.07017 33.9332L10.9095 6.11987L8.1734 6.19569L3.69434 31.8987L6.07017 33.9332Z" fill="black"/>
<path d="M6.07017 33.9332L10.9095 6.11987L8.1734 6.19569L3.69434 31.8987L6.07017 33.9332Z" stroke="black" stroke-width="0.216" stroke-miterlimit="22.9256"/>
<path fill-rule="evenodd" clip-rule="evenodd" d="M70.7043 15.7235L79.7988 14.523L75.8747 31.4562L69.8183 31.7215L68.4648 37.9641L90.5777 37.8756L92.4374 31.1023L85.5923 31.2414L91.4345 4.22412L83.5572 4.26203C79.3411 8.84915 76.5076 10.176 71.123 10.7194C71.347 12.3495 71.3567 13.967 70.7628 15.4708L70.7043 15.7235Z" fill="black"/>
<path d="M70.7043 15.7235L79.7988 14.523L75.8747 31.4562L69.8183 31.7215L68.4648 37.9641L90.5777 37.8756L92.4374 31.1023L85.5923 31.2414L91.4345 4.22412L83.5572 4.26203C79.3411 8.84915 76.5076 10.176 71.123 10.7194C71.347 12.3495 71.3567 13.967 70.7628 15.4708L70.7043 15.7235Z" stroke="black" stroke-width="0.216" stroke-miterlimit="22.9256"/>
<path fill-rule="evenodd" clip-rule="evenodd" d="M73.2168 34.4762L74.1516 33.124L74.356 34.5646L76.0698 34.7289L74.541 35.664L74.5703 37.2309L73.5284 36.1695L71.8633 36.7507L72.652 35.3101L71.5518 34.274L73.2168 34.4762Z" fill="white"/>
<path d="M73.2168 34.4762L74.1516 33.124L74.356 34.5646L76.0698 34.7289L74.541 35.664L74.5703 37.2309L73.5284 36.1695L71.8633 36.7507L72.652 35.3101L71.5518 34.274L73.2168 34.4762Z" stroke="white" stroke-width="0.216" stroke-miterlimit="22.9256"/>
<path fill-rule="evenodd" clip-rule="evenodd" d="M79.3511 34.4762L80.2956 33.124L80.5001 34.5646L82.2138 34.7289L80.6754 35.664L80.7046 37.2436L79.6627 36.1695L77.9977 36.7507L78.7864 35.3228L77.6958 34.274L79.3511 34.4762Z" fill="white"/>
<path d="M79.3511 34.4762L80.2956 33.124L80.5001 34.5646L82.2138 34.7289L80.6754 35.664L80.7046 37.2436L79.6627 36.1695L77.9977 36.7507L78.7864 35.3228L77.6958 34.274L79.3511 34.4762Z" stroke="white" stroke-width="0.216" stroke-miterlimit="22.9256"/>
<path fill-rule="evenodd" clip-rule="evenodd" d="M85.8164 34.6151L86.7512 33.2629L86.9556 34.7035L88.6694 34.8678L87.1406 35.8029L87.1699 37.3825L86.1183 36.3084L84.4532 36.8897L85.2419 35.4617L84.1514 34.4129L85.8164 34.6151Z" fill="white"/>
<path d="M85.8164 34.6151L86.7512 33.2629L86.9556 34.7035L88.6694 34.8678L87.1406 35.8029L87.1699 37.3825L86.1183 36.3084L84.4532 36.8897L85.2419 35.4617L84.1514 34.4129L85.8164 34.6151Z" stroke="white" stroke-width="0.216" stroke-miterlimit="22.9256"/>
<path d="M60.218 37.4835C59.9356 37.6478 59.7019 37.8248 59.5169 37.989C59.3319 38.166 59.1566 38.3681 58.9911 38.6209C58.7087 39.0505 58.5627 39.4043 58.5627 39.6824C58.5627 39.9351 58.66 40.0614 58.8645 40.0614C59.0008 40.0614 59.1371 39.973 59.2735 39.7961C59.4293 39.5813 59.585 39.24 59.7603 38.7472L60.218 37.4835ZM60.8995 34.3623C60.8119 34.3623 60.7048 34.4255 60.5977 34.5898C60.4906 34.7414 60.3543 35.0068 60.179 35.3732C60.0427 35.6639 59.9259 35.9671 59.8285 36.3083C59.7214 36.6369 59.6727 36.877 59.6727 37.0034C59.6727 37.1045 59.7116 37.1676 59.7798 37.1676C59.8869 37.1676 60.0135 37.0918 60.1596 36.9402C60.3056 36.7885 60.4419 36.5863 60.5783 36.3462C60.7243 36.0809 60.8606 35.7397 61.0067 35.31C61.0846 35.0952 61.1138 34.931 61.1138 34.792C61.1235 34.514 61.0553 34.3749 60.8995 34.3623ZM60.9288 37.1424C60.6561 37.8879 60.4614 38.3808 60.364 38.6209C60.2569 38.861 60.1498 39.0884 60.0135 39.278C59.8285 39.556 59.6435 39.7708 59.4487 39.9225C59.254 40.0741 59.0787 40.1499 58.9035 40.1499C58.7184 40.1499 58.5724 40.0488 58.475 39.8592C58.4069 39.7202 58.3777 39.5812 58.3777 39.417C58.3777 39.0884 58.5237 38.7725 58.8061 38.4566C59.0885 38.1407 59.5656 37.7742 60.2472 37.3572L60.5393 36.5232C60.3932 36.7633 60.2666 36.9275 60.1693 37.016C60.0135 37.155 59.8675 37.2308 59.7311 37.2308C59.5948 37.2308 59.4779 37.155 59.3903 37.0034C59.3027 36.8517 59.254 36.6496 59.254 36.4095C59.254 36.1567 59.3221 35.866 59.4487 35.5122C59.3221 35.7018 59.2151 35.8787 59.1177 36.043L59.069 36.0051C59.4001 35.3985 59.7117 34.9562 59.9843 34.6656C60.2667 34.3749 60.5296 34.2233 60.773 34.2233C60.9191 34.2233 61.0261 34.2738 61.0943 34.3623C61.1624 34.4507 61.1917 34.615 61.1917 34.8299L61.4059 34.3244L62.0972 34.2486C61.7175 35.1078 61.3474 36.0177 60.9677 36.9781C61.3182 36.7001 61.6396 36.2957 61.9317 35.7523L61.9804 35.8029C61.6883 36.3968 61.3377 36.8391 60.9288 37.1424ZM55.7876 37.1803C56.1576 36.4094 56.4595 35.7397 56.6932 35.171C56.849 34.7667 56.9366 34.5139 56.9366 34.4255C56.9366 34.3749 56.9268 34.3497 56.8976 34.3497C56.8392 34.3497 56.6931 34.5139 56.4594 34.8425C56.2258 35.171 55.9823 35.5502 55.7292 35.9798L55.6805 35.9293C55.9142 35.4996 56.1868 35.0826 56.4887 34.6782C56.625 34.4886 56.7321 34.3749 56.81 34.2991C56.8879 34.2359 56.9658 34.198 57.0437 34.198C57.1411 34.198 57.2092 34.2486 57.2676 34.337C57.3261 34.4255 57.3456 34.5519 57.3456 34.7035C57.3456 34.9057 57.3163 35.1079 57.2481 35.3227C57.18 35.5375 57.0242 35.9293 56.7808 36.5232C57.2384 35.6892 57.5987 35.0952 57.8616 34.7414C58.1245 34.3876 58.3387 34.2106 58.4945 34.2106C58.6016 34.2106 58.699 34.2612 58.7574 34.3749C58.8256 34.4887 58.8548 34.6277 58.8548 34.8172C58.8548 35.0447 58.8158 35.2721 58.7477 35.487C58.6795 35.7018 58.5432 36.0051 58.3387 36.3715C58.1537 36.7127 58.0661 36.9149 58.0661 36.9907C58.0661 37.0539 58.0953 37.0918 58.1537 37.0918C58.2608 37.0918 58.4264 36.9528 58.6406 36.6748C58.7964 36.4726 59.0009 36.1441 59.254 35.7018L59.3027 35.7523C59.0885 36.182 58.8645 36.5358 58.6503 36.8012C58.4263 37.0666 58.2414 37.1929 58.0953 37.1929C57.9785 37.1929 57.8811 37.1297 57.8129 37.016C57.7448 36.8896 57.7058 36.7254 57.7058 36.5232C57.7058 36.3084 57.7448 36.0935 57.8129 35.8787C57.8811 35.6639 58.0174 35.3985 58.2024 35.07C58.4069 34.7035 58.514 34.4887 58.514 34.4128C58.514 34.3497 58.4848 34.3118 58.4263 34.3118C58.2803 34.3118 58.0369 34.5645 57.7058 35.0573C57.3748 35.5502 56.9853 36.2325 56.5569 37.1045L55.7876 37.1803ZM55.7682 34.2612C55.2034 35.5122 54.8821 36.2452 54.8042 36.46C54.6874 36.7885 54.6192 36.9907 54.6192 37.0539C54.6192 37.1171 54.6386 37.1424 54.697 37.1424C54.8626 37.1424 55.1839 36.7506 55.6513 35.9672L55.7 36.0177C55.5831 36.2452 55.4274 36.4979 55.2326 36.7506C55.0963 36.9402 54.9697 37.0666 54.8724 37.155C54.775 37.2308 54.6776 37.2687 54.59 37.2687C54.4828 37.2687 54.3952 37.2055 54.327 37.0918C54.2589 36.9781 54.2199 36.8265 54.2199 36.6496C54.2199 36.4095 54.3563 35.9798 54.6289 35.3606C54.7945 34.9941 54.9113 34.6909 55.0086 34.4634L54.0642 36.0051L54.0155 35.9545L55.0184 34.3118L55.7682 34.2612ZM56.0408 32.3404C56.1187 32.3404 56.1868 32.3783 56.2355 32.4542C56.2842 32.53 56.3134 32.6311 56.3134 32.7574C56.3134 32.9091 56.2745 33.0354 56.1868 33.1618C56.1089 33.2755 56.0116 33.3387 55.9045 33.3387C55.8266 33.3387 55.7584 33.3008 55.7097 33.225C55.6611 33.1492 55.6318 33.0607 55.6318 32.947C55.6318 32.7953 55.6708 32.6564 55.7584 32.5426C55.8363 32.4036 55.9337 32.3404 56.0408 32.3404ZM52.2239 35.5375L51.9025 36.0177L51.8539 35.9545C52.2044 35.3859 52.516 34.9689 52.7886 34.6908C53.0905 34.3876 53.3826 34.2359 53.6649 34.2359C53.811 34.2359 53.9278 34.2991 54.0349 34.4128C54.1323 34.5266 54.181 34.6782 54.181 34.8425C54.181 34.9688 54.1518 35.07 54.1031 35.1458C54.0447 35.2216 53.9863 35.2721 53.8987 35.2721C53.8305 35.2721 53.772 35.2342 53.7233 35.171C53.6747 35.1079 53.6455 35.0194 53.6455 34.9309C53.6455 34.8551 53.665 34.7919 53.6942 34.7288C53.7234 34.6656 53.7623 34.615 53.811 34.6024C53.8792 34.5645 53.9181 34.5266 53.9181 34.5013C53.9181 34.4634 53.8986 34.4255 53.8694 34.4002C53.8402 34.375 53.8013 34.3623 53.7623 34.3623C53.6455 34.3623 53.5189 34.4507 53.4021 34.6403C53.0613 35.1837 52.8081 35.7776 52.6523 36.4347C52.5939 36.7001 52.5646 36.877 52.5646 36.9655C52.5646 37.1045 52.6328 37.1803 52.7691 37.1803C52.9736 37.1803 53.1879 37.0666 53.4118 36.8391C53.6358 36.6116 53.8889 36.2452 54.1713 35.7523L54.2199 35.8029C53.6844 36.7885 53.1878 37.2814 52.7302 37.2814C52.5647 37.2814 52.4283 37.2308 52.3212 37.1171C52.2336 37.0413 52.1655 36.9149 52.1168 36.7633C52.0681 36.6116 52.0389 36.46 52.0389 36.2831C52.0389 36.1567 52.0486 36.0303 52.0778 35.9293C52.0973 35.8282 52.146 35.7018 52.2239 35.5375ZM50.7341 34.3244C50.6465 34.3244 50.5491 34.4002 50.4225 34.5645C50.3057 34.7287 50.1596 34.9815 50.0039 35.3227C49.8286 35.6891 49.6825 36.0303 49.5754 36.3462C49.4683 36.6495 49.4098 36.8644 49.4098 36.9781C49.4098 37.1044 49.4683 37.1676 49.5949 37.1676C49.702 37.1676 49.8286 37.0792 49.9844 36.9023C50.1402 36.7254 50.2862 36.4852 50.442 36.182C50.588 35.8787 50.7244 35.5881 50.8315 35.2974C50.9386 35.0068 50.997 34.8172 50.997 34.7161C50.997 34.615 50.9775 34.5266 50.9191 34.4507C50.8704 34.3623 50.8023 34.3244 50.7341 34.3244ZM51.9609 34.2486C51.6494 34.9562 51.4546 35.3985 51.367 35.6133C51.2794 35.8155 51.1625 36.1188 51.0262 36.5105C50.9191 36.8012 50.8607 36.9907 50.8607 37.0539C50.8607 37.0918 50.8802 37.1171 50.9094 37.1171C50.9775 37.1171 51.0944 37.0413 51.2307 36.9023C51.4838 36.6495 51.7467 36.2325 52.0389 35.6512L52.0973 35.7018C51.8441 36.1946 51.6105 36.5737 51.3962 36.8391C51.1723 37.1045 50.9873 37.2435 50.8315 37.2435C50.7244 37.2435 50.6367 37.1929 50.5686 37.0918C50.5004 36.9907 50.4712 36.8517 50.4712 36.6875C50.4712 36.5611 50.5004 36.3589 50.5686 36.0682C50.4128 36.3842 50.2667 36.6243 50.1499 36.7885C49.9357 37.1045 49.7214 37.2561 49.5267 37.2561C49.3709 37.2561 49.2346 37.1803 49.1275 37.016C49.0204 36.8517 48.9717 36.6495 48.9717 36.3968C48.9717 36.1567 49.0301 35.8661 49.147 35.5375C49.0399 35.7018 48.9328 35.8661 48.8354 36.0303L48.7867 35.9798C49.0204 35.6007 49.2248 35.2848 49.4098 35.0447C49.8285 34.4887 50.2375 34.2233 50.6172 34.2233C50.7633 34.2233 50.8704 34.2738 50.9386 34.3623C51.0067 34.4507 51.0554 34.5898 51.0554 34.792L51.2502 34.3497L51.9609 34.2486ZM48.3291 31.4811C48.0954 31.6328 47.9201 31.8223 47.7838 32.075C47.5793 32.4668 47.3748 33.0607 47.1898 33.8695C47.0827 34.3623 46.9951 34.6909 46.9464 34.8678C46.8977 35.0447 46.8393 35.2216 46.7614 35.3985C46.2551 36.6369 45.5637 37.2561 44.6777 37.2561C44.3466 37.2561 44.0935 37.1424 43.9182 36.9276C43.7527 36.7254 43.665 36.4726 43.665 36.1694C43.665 35.9419 43.7137 35.7523 43.8208 35.588C43.9279 35.4238 44.0545 35.348 44.2006 35.348C44.2979 35.348 44.3758 35.3985 44.4537 35.487C44.5219 35.5754 44.5511 35.6892 44.5511 35.8155C44.5511 35.9798 44.4927 36.1062 44.3856 36.1946C44.3564 36.2199 44.2492 36.2578 44.0642 36.321C43.9474 36.3589 43.8792 36.46 43.8792 36.6116C43.8792 36.7506 43.9376 36.8644 44.0545 36.9781C44.2103 37.1044 44.3855 37.1803 44.59 37.1803C44.8821 37.1803 45.1353 37.0287 45.3495 36.7254C45.5637 36.4221 45.8072 35.8534 46.109 35.0068C46.3719 34.2486 46.6056 33.6673 46.7906 33.2629C46.9756 32.8585 47.1995 32.5047 47.4527 32.1762C47.6864 31.8855 47.9493 31.6328 48.2414 31.4432C48.0174 31.3168 47.7643 31.2537 47.4624 31.2537C46.9853 31.2537 46.5082 31.3801 46.0311 31.6328C45.4566 31.9361 45.0185 32.3404 44.7069 32.8459C44.483 33.2124 44.3758 33.5788 44.3758 33.9579C44.3758 34.1475 44.4148 34.2991 44.4829 34.4128C44.5705 34.5518 44.6777 34.615 44.8043 34.615C44.9503 34.615 45.1158 34.5266 45.2814 34.3623C45.4566 34.198 45.6124 33.9706 45.7585 33.6799C45.8948 33.4272 45.9922 33.1871 46.0603 32.947C46.1285 32.7069 46.1674 32.4415 46.1966 32.1256H46.2551C46.2745 32.391 46.2843 32.5805 46.2843 32.6943C46.2843 33.364 46.1382 33.8948 45.8559 34.2739C45.6124 34.6024 45.3203 34.7667 44.9795 34.7667C44.775 34.7667 44.6095 34.6909 44.4829 34.5392C44.3563 34.3876 44.2979 34.198 44.2979 33.9453C44.2979 33.5662 44.4148 33.1744 44.6485 32.7953C44.9698 32.2646 45.4177 31.8476 46.0019 31.5443C46.4887 31.2916 46.9659 31.1652 47.4235 31.1652C47.7156 31.1652 48.0272 31.2284 48.368 31.3548C48.5238 31.279 48.6698 31.2031 48.8159 31.1526L48.8257 31.2284L48.6504 31.3042L48.4556 31.3927C48.6893 31.5191 48.8451 31.6581 48.9425 31.7844C49.1178 32.0245 49.2151 32.2772 49.2151 32.5679C49.2151 32.8585 49.1177 33.1492 48.923 33.4272C48.699 33.7431 48.3291 33.9958 47.7935 34.198C47.9104 34.3497 47.9883 34.5013 48.0272 34.6403C48.0759 34.7793 48.0954 34.9562 48.0954 35.1584C48.0954 35.2595 48.0856 35.348 48.0759 35.4491C48.0661 35.5375 48.0077 35.8281 47.9201 36.3083C47.8714 36.5611 47.8519 36.7633 47.8519 36.9276C47.8519 37.0034 47.8714 37.0539 47.9299 37.0539C48.0175 37.0539 48.183 36.8896 48.407 36.5737C48.5335 36.3968 48.6796 36.1441 48.8548 35.8281L48.9036 35.8787C48.6504 36.3589 48.4264 36.7001 48.222 36.9276C48.0272 37.155 47.8422 37.2561 47.6669 37.2561C47.5112 37.2561 47.3943 37.1803 47.2969 37.0413C47.2093 36.9023 47.1606 36.738 47.1606 36.5358C47.1606 36.321 47.1996 36.0809 47.2872 35.8534L47.5306 35.1837C47.6182 34.931 47.6669 34.7161 47.6669 34.5392C47.6669 34.4508 47.6475 34.3497 47.6085 34.2359C47.5014 34.2612 47.4333 34.2739 47.3846 34.2739C47.2775 34.2739 47.2288 34.2359 47.2288 34.1601C47.2288 34.1222 47.2482 34.0843 47.2774 34.059C47.3164 34.0337 47.3553 34.0211 47.404 34.0211C47.4917 34.0211 47.5988 34.0717 47.7254 34.1601C47.9396 34.0843 48.1051 33.9326 48.2317 33.7431C48.3583 33.5409 48.4557 33.3135 48.5336 33.0481C48.6114 32.7954 48.6504 32.5553 48.6504 32.3278C48.6699 31.974 48.553 31.6959 48.3291 31.4811Z" fill="black"/>
<path d="M69.741 20.4746L70.9873 18.8066L75.9629 18.3264L73.3437 28.6506L71.1723 28.878C71.7468 25.643 71.3086 23.3179 69.741 20.4746Z" stroke="#D9D9D9" stroke-width="1.9998" stroke-miterlimit="22.9256"/>
<path fill-rule="evenodd" clip-rule="evenodd" d="M50.4029 15.4199L57.9393 15.3567L55.398 16.2412L53.6551 16.7846C53.0416 16.9489 52.4574 16.9363 51.8342 16.9994C51.1915 17.0121 50.5294 16.9615 49.916 16.7341L50.4029 15.4199Z" fill="#D9D9D9"/>
<path d="M50.4029 15.4199L57.9393 15.3567L55.398 16.2412L53.6551 16.7846C53.0416 16.9489 52.4574 16.9363 51.8342 16.9994C51.1915 17.0121 50.5294 16.9615 49.916 16.7341L50.4029 15.4199Z" stroke="#D9D9D9" stroke-width="0.216" stroke-miterlimit="22.9256"/>
<path fill-rule="evenodd" clip-rule="evenodd" d="M48.7771 26.6036L57.0633 26.5278L54.2784 27.5388L52.3603 28.158C51.6884 28.3475 51.0458 28.3222 50.3642 28.4107C49.6631 28.4233 48.9328 28.3728 48.2512 28.1074L48.7771 26.6036Z" fill="#D9D9D9"/>
<path d="M48.7771 26.6036L57.0633 26.5278L54.2784 27.5388L52.3603 28.158C51.6884 28.3475 51.0458 28.3222 50.3642 28.4107C49.6631 28.4233 48.9328 28.3728 48.2512 28.1074L48.7771 26.6036Z" stroke="#D9D9D9" stroke-width="0.216" stroke-miterlimit="22.9256"/>
</svg>
