<svg width="48" height="48" viewBox="0 0 48 48" fill="none" xmlns="http://www.w3.org/2000/svg">
<g clip-path="url(#clip0_685_54451)">
<path d="M1.03023 23.7128C1.02911 27.7458 2.09084 31.6836 4.1097 35.1545L0.837158 47.0135L13.0651 43.8313C16.4471 45.6587 20.2365 46.6162 24.0873 46.6165H24.0974C36.8095 46.6165 47.1574 36.3499 47.1628 23.7309C47.1653 17.6161 44.7681 11.8661 40.4129 7.54018C36.0583 3.2146 30.267 0.83116 24.0964 0.828369C11.3829 0.828369 1.03567 11.0944 1.03042 23.7128" fill="url(#paint0_linear_685_54451)"/>
<path d="M0.206678 23.7053C0.205365 27.8833 1.30515 31.962 3.39599 35.5572L0.00610352 47.8413L12.6724 44.5451C16.1624 46.4337 20.0918 47.4294 24.0902 47.4309H24.1005C37.2686 47.4309 47.9883 36.795 47.9939 23.7243C47.9962 17.3898 45.5128 11.4331 41.0019 6.95219C36.4905 2.47181 30.492 0.00260465 24.1005 0C10.9301 0 0.211926 10.6344 0.206678 23.7053ZM7.74976 34.938L7.27682 34.1929C5.2887 31.0554 4.23934 27.4298 4.24084 23.7068C4.24515 12.8426 13.1536 4.00372 24.108 4.00372C29.4129 4.00595 34.3984 6.05842 38.1482 9.78233C41.8978 13.5066 43.9611 18.4573 43.9598 23.7228C43.9549 34.587 35.0462 43.427 24.1005 43.427H24.0926C20.5286 43.4251 17.0332 42.4752 13.9848 40.68L13.2594 40.253L5.7429 42.2089L7.74976 34.9379V34.938Z" fill="url(#paint1_linear_685_54451)"/>
<path d="M18.1285 13.7949C17.6813 12.8083 17.2106 12.7884 16.7852 12.7711C16.437 12.7562 16.0388 12.7573 15.641 12.7573C15.2429 12.7573 14.596 12.906 14.0492 13.4986C13.5018 14.0917 11.9595 15.525 11.9595 18.4401C11.9595 21.3555 14.0989 24.1728 14.3971 24.5685C14.6957 24.9635 18.5272 31.1373 24.5955 33.5123C29.6387 35.4861 30.665 35.0935 31.7595 34.9946C32.8542 34.8959 35.2919 33.5616 35.7892 32.178C36.2869 30.7946 36.2869 29.6087 36.1376 29.3609C35.9884 29.114 35.5903 28.9657 34.9932 28.6695C34.396 28.3732 31.4609 26.9397 30.9137 26.7419C30.3664 26.5443 29.9684 26.4457 29.5702 27.039C29.1721 27.6314 28.0288 28.9657 27.6804 29.3609C27.3323 29.757 26.9838 29.8063 26.3869 29.5099C25.7895 29.2126 23.8668 28.5877 21.5857 26.5693C19.8109 24.9986 18.6127 23.0591 18.2644 22.4658C17.9161 21.8734 18.2271 21.5523 18.5265 21.2571C18.7947 20.9916 19.1237 20.5652 19.4225 20.2193C19.7202 19.8733 19.8195 19.6264 20.0186 19.2312C20.2179 18.8357 20.1182 18.4896 19.9691 18.1933C19.8195 17.8969 18.6594 14.9665 18.1285 13.7949Z" fill="white"/>
</g>
<defs>
<linearGradient id="paint0_linear_685_54451" x1="2317.12" y1="4619.34" x2="2317.12" y2="0.828369" gradientUnits="userSpaceOnUse">
<stop stop-color="#1FAF38"/>
<stop offset="1" stop-color="#60D669"/>
</linearGradient>
<linearGradient id="paint1_linear_685_54451" x1="2399.4" y1="4784.13" x2="2399.4" y2="0" gradientUnits="userSpaceOnUse">
<stop stop-color="#F9F9F9"/>
<stop offset="1" stop-color="white"/>
</linearGradient>
<clipPath id="clip0_685_54451">
<rect width="48" height="48" fill="white"/>
</clipPath>
</defs>
</svg>
